HIERARCHY
ROOT Hips
{
	OFFSET 0.000000 0.000000 0.000000
	CHANNELS 6 Xposition Yposition Zposition Zrotation Yrotation Xrotation 
	JOINT LowerBack
	{
		OFFSET 0.000000 0.000000 0.000000
		CHANNELS 3 Zrotation Yrotation Xrotation
		JOINT Spine
		{
			OFFSET 0.028270 2.035590 -0.193380
			CHANNELS 3 Zrotation Yrotation Xrotation
			JOINT Spine1
			{
				OFFSET 0.056720 2.048850 -0.042750
				CHANNELS 3 Zrotation Yrotation Xrotation
				JOINT Neck
				{
					OFFSET 0.000000 0.000000 0.000000
					CHANNELS 3 Zrotation Yrotation Xrotation
					JOINT Neck1
					{
						OFFSET -0.054170 1.746240 0.172020
						CHANNELS 3 Zrotation Yrotation Xrotation
						JOINT Head
						{
							OFFSET 0.104070 1.761360 -0.123970
							CHANNELS 3 Zrotation Yrotation Xrotation
							End Site
							{
								OFFSET 0.000000 0.000000 0.000000
							}
						}
					}
				}
				JOINT LeftShoulder
				{
					OFFSET 0.000000 0.000000 0.000000
					CHANNELS 3 Zrotation Yrotation Xrotation
					JOINT LeftArm
					{
						OFFSET 3.362410 1.200890 -0.311210
						CHANNELS 3 Zrotation Yrotation Xrotation
						JOINT LeftForeArm
						{
							OFFSET 4.983000 -0.000000 -0.000000
							CHANNELS 3 Zrotation Yrotation Xrotation
							JOINT LeftHand
							{
								OFFSET 3.483560 -0.000000 -0.000000
								CHANNELS 3 Zrotation Yrotation Xrotation
								JOINT LeftFingerBase
								{
									OFFSET 0.000000 0.000000 0.000000
									CHANNELS 3 Zrotation Yrotation Xrotation
									JOINT LeftHandIndex1
									{
										OFFSET 0.715260 -0.000000 -0.000000
										CHANNELS 3 Zrotation Yrotation Xrotation
										End Site
										{
											OFFSET 0.000000 0.000000 0.000000
										}
									}
								}
								JOINT LThumb
								{
									OFFSET 0.000000 0.000000 0.000000
									CHANNELS 3 Zrotation Yrotation Xrotation
									End Site
									{
										OFFSET 0.000000 0.000000 0.000000
									}
								}
							}
						}
					}
				}
				JOINT RightShoulder
				{
					OFFSET 0.000000 0.000000 0.000000
					CHANNELS 3 Zrotation Yrotation Xrotation
					JOINT RightArm
					{
						OFFSET -3.136600 1.374050 -0.404650
						CHANNELS 3 Zrotation Yrotation Xrotation
						JOINT RightForeArm
						{
							OFFSET -5.241900 -0.000000 -0.000000
							CHANNELS 3 Zrotation Yrotation Xrotation
							JOINT RightHand
							{
								OFFSET -3.444170 -0.000000 -0.000000
								CHANNELS 3 Zrotation Yrotation Xrotation
								JOINT RightFingerBase
								{
									OFFSET 0.000000 0.000000 0.000000
									CHANNELS 3 Zrotation Yrotation Xrotation
									JOINT RightHandIndex1
									{
										OFFSET -0.622530 -0.000000 -0.000000
										CHANNELS 3 Zrotation Yrotation Xrotation
										End Site
										{
											OFFSET 0.000000 0.000000 0.000000
										}
									}
								}
								JOINT RThumb
								{
									OFFSET 0.000000 0.000000 0.000000
									CHANNELS 3 Zrotation Yrotation Xrotation
									End Site
									{
										OFFSET 0.000000 0.000000 0.000000
									}
								}
							}
						}
					}
				}
			}
		}
	}
}
}
MOTION
Frames: 12
Frame Time: 0.008333
4.034353 17.413431 0.931144 8.809129 -50.573456 12.366322 -0.366623 2.519259 -0.513671 0.584139 2.647329 -3.014039 0.835337 2.585328 -0.889470 -9.166499 -0.738297 -4.432282 0.033206 -0.052028 0.873985 0.000000 0.000000 0.000000 -3.412230 6.115347 -2.141412 -82.062533 -13.983045 34.178727 -179.454283 -66.401373 -179.990072 -0.413934 3.999602 -0.016357 0.103493 0.391572 -0.000000 0.000000 0.000000 0.000000 0.000000 0.000000 0.000000 -21.549810 5.538524 4.130265 -13.234328 15.582401 -71.053709 -1.083077 15.238575 -0.053317 -6.017026 3.676990 -0.231918 0.167709 -0.606791 -0.000000 0.000000 0.000000 0.000000 0.000000 0.000000 0.000000 
4.047451 17.412046 0.936817 8.721613 -50.674864 12.568093 -0.412026 2.388547 -0.426901 0.590704 2.522133 -3.013184 0.867643 2.459264 -0.917970 -8.747797 -0.852309 -4.324121 -0.041737 -0.058833 0.900174 0.000000 0.000000 0.000000 -3.316821 6.008605 -2.196153 -82.850652 -12.910521 32.772484 -179.524510 -66.186674 -179.991055 -0.208140 3.960621 -0.009799 0.108353 0.402802 -0.000000 0.000000 0.000000 0.000000 0.000000 0.000000 0.000000 -20.947285 5.348187 4.138264 -13.408538 15.095317 -67.881940 -0.783325 17.786691 -0.034996 -3.759655 5.661707 -0.213882 0.096141 -0.676655 -0.000000 0.000000 0.000000 0.000000 0.000000 0.000000 0.000000 
4.062187 17.409843 0.940306 8.629723 -50.881879 12.751993 -0.507921 2.271542 -0.313978 0.588048 2.414163 -3.005924 0.904029 2.350810 -0.947750 -8.272848 -1.053204 -4.203994 -0.117323 -0.065854 0.929189 0.000000 0.000000 0.000000 -3.155912 5.883684 -2.245553 -83.654587 -11.873345 31.374161 -179.598775 -66.023509 -179.992700 0.056027 3.908568 -0.001626 0.110867 0.413865 -0.000000 0.000000 0.000000 0.000000 0.000000 0.000000 0.000000 -20.256331 5.065707 4.096078 -13.435888 14.767436 -65.100867 -0.587601 20.858546 -0.027418 -2.829181 7.322236 -0.204079 0.066630 -0.731105 -0.000000 0.000000 0.000000 0.000000 0.000000 0.000000 0.000000 
4.078046 17.406964 0.941595 8.541207 -51.174351 12.914255 -0.650221 2.165970 -0.175242 0.576599 2.320762 -2.993602 0.941909 2.257425 -0.984260 -7.754906 -1.320530 -4.070715 -0.192701 -0.073046 0.961477 0.000000 0.000000 0.000000 -2.935470 5.739415 -2.286967 -84.450042 -10.883866 30.002219 -179.675514 -65.913847 -179.995098 0.383372 3.840825 0.008265 0.110637 0.424640 0.000000 0.000000 0.000000 0.000000 0.000000 0.000000 0.000000 -19.492671 4.713816 4.000566 -13.283607 14.582742 -62.721302 -0.478657 24.389496 -0.029051 -2.949306 8.519930 -0.245209 0.066966 -0.766564 -0.000000 0.000000 0.000000 0.000000 0.000000 0.000000 0.000000 
4.094792 17.403668 0.940961 8.457192 -51.531820 13.052243 -0.824144 2.065373 -0.009589 0.560987 2.234577 -2.976753 0.986883 2.171643 -1.031329 -7.222879 -1.614950 -3.921339 -0.262510 -0.080077 0.997922 0.000000 0.000000 0.000000 -2.685651 5.588958 -2.314023 -85.204801 -9.957548 28.669667 -179.749434 -65.849916 -179.998198 0.763548 3.755804 0.019270 0.107620 0.435140 -0.000000 0.000000 0.000000 0.000000 0.000000 0.000000 0.000000 -18.715548 4.330785 3.849621 -12.887734 14.519685 -60.708921 -0.431260 28.338758 -0.037008 -3.730293 9.356188 -0.338758 0.082131 -0.786911 -0.000000 0.000000 0.000000 0.000000 0.000000 0.000000 0.000000 
4.112016 17.400175 0.938800 8.374568 -51.931362 13.173295 -1.015926 1.965122 0.177009 0.540763 2.149607 -2.957539 1.024839 2.087805 -1.091412 -6.676175 -1.927515 -3.755855 -0.331673 -0.087285 1.038646 0.000000 0.000000 0.000000 -2.406843 5.432580 -2.325813 -85.888098 -9.098933 27.395838 -179.818051 -65.825436 179.997946 1.201006 3.659711 0.031295 0.101369 0.445066 0.000000 0.000000 0.000000 0.000000 0.000000 0.000000 0.000000 -17.908316 3.923531 3.644223 -12.280888 14.592490 -58.993409 -0.429136 32.573702 -0.050926 -5.113472 9.646291 -0.477631 0.108848 -0.789944 -0.000000 0.000000 0.000000 0.000000 0.000000 0.000000 0.000000 
4.129350 17.396757 0.935498 8.300891 -52.368446 13.278415 -1.216321 1.862118 0.378910 0.516906 2.061975 -2.937486 1.052644 2.002022 -1.164412 -6.130178 -2.232998 -3.573486 -0.398915 -0.094582 1.083858 0.000000 0.000000 0.000000 -2.116530 5.279192 -2.320427 -86.469877 -8.310553 26.192509 -179.878080 -65.831449 179.993427 1.687018 3.559743 0.043733 0.091961 0.454113 0.000000 0.000000 0.000000 0.000000 0.000000 0.000000 0.000000 -17.101890 3.515771 3.390042 -11.449655 14.800415 -57.518102 -0.451044 36.995748 -0.068387 -6.834818 9.477311 -0.627114 0.139075 -0.780357 -0.000000 0.000000 0.000000 0.000000 0.000000 0.000000 0.000000 
4.146615 17.393608 0.931467 8.234591 -52.830108 13.370650 -1.415661 1.752728 0.592112 0.489645 1.967185 -2.917417 1.062631 1.909862 -1.250063 -5.588261 -2.511329 -3.372546 -0.466365 -0.102129 1.133999 0.000000 0.000000 0.000000 -1.819611 5.126172 -2.298537 -86.928300 -7.588227 25.070012 -179.928162 -65.860167 179.988359 2.213899 3.465153 0.056584 0.079615 0.461932 -0.000000 0.000000 0.000000 0.000000 0.000000 0.000000 0.000000 -16.299154 3.124812 3.097423 -10.412824 15.135988 -56.215250 -0.479611 41.495894 -0.087498 -8.713166 8.907642 -0.753103 0.168726 -0.761641 -0.000000 0.000000 0.000000 0.000000 0.000000 0.000000 0.000000 
4.163808 17.390963 0.927147 8.171620 -53.309266 13.455967 -1.604344 1.633987 0.812553 0.459874 1.861509 -2.897222 1.050127 1.807547 -1.343904 -5.056553 -2.756413 -3.155446 -0.534227 -0.109888 1.188343 0.000000 0.000000 0.000000 -1.523984 4.981211 -2.261109 -87.247498 -6.932335 24.041035 -179.966576 -65.902578 179.982909 2.769391 3.385715 0.069741 0.064676 0.468194 0.000000 0.000000 0.000000 0.000000 0.000000 0.000000 0.000000 -15.513813 2.754815 2.775310 -9.177226 15.605332 -55.046446 -0.503486 45.981789 -0.106449 -10.580498 8.037798 -0.829493 0.194798 -0.737498 -0.000000 0.000000 0.000000 0.000000 0.000000 0.000000 0.000000 
4.180710 17.388898 0.922895 8.111151 -53.800147 13.538088 -1.779314 1.505544 1.036473 0.427019 1.744344 -2.877677 1.010523 1.694442 -1.444934 -4.531274 -2.950628 -2.920691 -0.605262 -0.118056 1.247253 0.000000 0.000000 0.000000 -1.227606 4.835927 -2.210201 -87.420449 -6.332898 23.112438 -179.993784 -65.952547 179.977262 3.341646 3.331318 0.083202 0.047698 0.472589 0.000000 0.000000 0.000000 0.000000 0.000000 0.000000 0.000000 -14.734890 2.421536 2.437288 -7.767991 16.177711 -53.957700 -0.512912 50.392069 -0.123758 -12.308286 6.995456 -0.846981 0.215728 -0.711109 -0.000000 0.000000 0.000000 0.000000 0.000000 0.000000 0.000000 
4.197301 17.387501 0.919044 8.050250 -54.300769 13.622105 -1.937203 1.367853 1.261046 0.391447 1.615990 -2.858634 0.942734 1.570733 -1.549604 -4.013788 -3.091529 -2.670527 -0.679383 -0.126574 1.310053 0.000000 0.000000 0.000000 -0.935035 4.691748 -2.147144 -87.443716 -5.786664 22.294074 179.990619 -66.007256 179.971614 3.916109 3.309277 0.097362 0.029225 0.474928 0.000000 0.000000 0.000000 0.000000 0.000000 0.000000 0.000000 -13.968025 2.127697 2.092126 -6.187342 16.836648 -52.918127 -0.503806 54.693740 -0.138395 -13.804117 5.929589 -0.815065 0.230635 -0.685460 -0.000000 0.000000 0.000000 0.000000 0.000000 0.000000 0.000000 
4.213607 17.386804 0.915711 7.987874 -54.810357 13.708005 -2.080966 1.224860 1.484069 0.352093 1.480748 -2.841174 0.846106 1.440646 -1.659950 -3.495512 -3.152564 -2.401667 -0.759450 -0.135667 1.377631 0.000000 0.000000 0.000000 -0.639125 4.532532 -2.073695 -87.325651 -5.280761 21.586800 179.985107 -66.062240 179.966197 4.474392 3.324236 0.112417 0.010168 0.475159 0.000000 0.000000 0.000000 0.000000 0.000000 0.000000 0.000000 -13.192922 1.902057 1.754925 -4.461904 17.499773 -51.867397 -0.471673 58.899157 -0.149917 -15.033128 4.956606 -0.753743 0.239976 -0.662307 -0.000000 0.000000 0.000000 0.000000 0.000000 0.000000 0.000000 
